<?xml version="1.0" encoding="UTF-8"?> <svg xmlns="http://www.w3.org/2000/svg" width="783" height="200" viewBox="0 0 783 200"><defs><linearGradient id="a" x1="14.143%" x2="97.366%" y1="85.707%" y2="2.806%"><stop offset="0%" stop-color="#1B1078"></stop><stop offset="40%" stop-color="#E058C0"></stop><stop offset="49%" stop-color="#E95991"></stop><stop offset="58%" stop-color="#F05A69"></stop><stop offset="65%" stop-color="#F45B50"></stop><stop offset="69%" stop-color="#F65B47"></stop><stop offset="95%" stop-color="#FBCB0A"></stop></linearGradient></defs><g fill="none"><path fill="#12113E" d="M333.563219 84.087563 333.563219 117.255429C324.336946 127.69338 312.088777 133.226224 297.256668 133.226224 268.555953 133.226224 252.205596 112.948862 252.205596 88.99267 252.205596 64.4233395 269.023106 44.2773643 295.621632 44.2773643 312.789507 44.2773643 326.205558 53.0364839 332.278548 66.2627546L319.329649 73.5620209C315.709213 65.2116602 307.8844 59.1970647 295.855209 59.1970647 278.117992 59.1970647 267.504858 72.0875691 267.504858 88.8028891 267.504858 105.255435 277.723831 118.408713 297.256668 118.408713 305.490881 118.693264 313.52268 115.821034 319.709211 110.37952L319.709211 97.8101837 297.373456 97.8101837 297.373456 84.087563 333.563219 84.087563M347.227445 101.649598C347.227445 84.3357381 359.242038 70.0729716 378.847867 70.0729716 398.453697 70.0729716 410.482888 84.3357381 410.482888 101.649598 410.482888 118.963458 398.541288 133.226224 378.847867 133.226224 359.154447 133.226224 347.227445 118.978056 347.227445 101.649598M396.13253 101.649598C396.13253 91.0802602 389.358811 83.4744246 378.847867 83.4744246 368.336924 83.4744246 361.577803 91.0802602 361.577803 101.649598 361.577803 112.218936 368.351522 119.824771 378.847867 119.824771 389.344212 119.824771 396.13253 112.218936 396.13253 101.649598L396.13253 101.649598ZM504.161672 86.9342769 504.161672 117.138641C495.13956 127.46592 482.003011 133.261613 468.293077 132.96345 440.293091 132.96345 424.205508 113.109446 424.205508 89.4890201 424.205508 65.124069 440.760244 45.2846631 466.789428 45.2846631 483.679931 45.2846631 496.877004 53.8102062 503.008388 66.8320973L495.139779 71.5328249C490.628832 61.1678667 480.672633 54.4817387 467.139793 54.4817387 446.424475 54.4817387 433.460978 69.7080083 433.460978 89.1824509 433.460978 108.656894 446.307687 123.532798 468.176289 123.532798 478.935407 123.532798 488.614235 119.999953 495.606932 112.204337L495.606932 95.8247833 469.446361 95.8247833 469.446361 86.9342769 504.161672 86.9342769"></path><rect width="8.788" height="87.679" x="523.344" y="44.058" fill="#12113E"></rect><path fill="#12113E" d="M549.25654 101.912371C549.25654 84.8612852 561.183541 70.8466938 579.811268 70.8466938 598.438996 70.8466938 610.220012 84.8612852 610.220012 101.912371 610.220012 118.963458 598.293011 132.96345 579.782071 132.96345 561.271132 132.96345 549.227342 118.963458 549.227342 101.912371M601.300309 101.912371C601.300309 88.99267 592.745568 79.3722369 579.782071 79.3722369 566.818574 79.3722369 558.176243 89.0510641 558.176243 101.912371 558.176243 114.773679 566.847771 124.321119 579.811268 124.321119 592.774765 124.321119 601.329506 114.817474 601.329506 101.912371L601.300309 101.912371ZM683.825814 101.912371C683.825814 118.832071 671.782024 132.96345 654.424369 132.96345 646.03327 133.207975 638.048549 129.351779 633.02292 122.627689L633.02292 131.766371 624.263801 131.766371 624.263801 46.4963413 633.02292 46.4963413 633.02292 81.2116521C637.884232 74.3941373 645.636052 70.8466938 654.424369 70.8466938 671.782024 70.8466938 683.825814 84.9780735 683.825814 101.912371M674.90611 101.912371C674.90611 88.99267 666.687137 79.3722369 653.008311 79.3722369 644.866 79.2244331 637.252934 83.3946827 632.993723 90.335735L632.993723 113.489008C637.272707 120.393062 644.888075 124.514581 653.008311 124.321119 666.687137 124.321119 674.90611 114.817474 674.90611 101.912371ZM754.628698 72.0729706 754.628698 131.751772 745.869578 131.751772 745.869578 122.627689C740.879151 129.332777 732.940531 133.19319 724.584917 132.978049 707.066684 132.978049 695.066684 118.846669 695.066684 101.92697 695.066684 85.0072706 707.110474 70.8612924 724.584917 70.8612924 732.954 70.5992907 740.915176 74.4761326 745.869578 81.2262506L745.869578 72.0729706 754.628698 72.0729706M745.869578 90.335735C741.642193 83.41992 734.076384 79.251231 725.971778 79.3722369 712.32215 79.3722369 703.986388 88.99267 703.986388 101.912371 703.986388 114.832073 712.32215 124.321119 725.971778 124.321119 734.054336 124.487698 741.622398 120.36774 745.869578 113.489008L745.869578 90.335735Z"></path><rect width="8.788" height="87.679" x="773.928" y="44.058" fill="#12113E"></rect><path fill="url(#a)" d="M22.4246913,27.416059 C19.8505498,29.748434 17.5086877,32.3249712 15.4319942,35.1094858 C9.13946092,43.472687 4.08962087,52.7020441 0.439301089,62.5109317 C-1.57529642,42.8613066 3.35900763,27.2554752 14.8334543,18.0292025 C27.9721338,7.47446338 47.3151896,6.89052207 69.5195578,16.3941669 C90.5122479,25.3430674 111.738514,42.3357595 129.461133,64.2335585 C147.183752,86.1313576 159.329731,110.569301 163.680094,132.919655 C164.675418,137.991988 165.241895,143.13912 165.373524,148.306508 C161.419722,153.592722 156.841516,158.381702 151.738494,162.569275 C153.811486,155.124023 153.884478,145.868553 151.738494,135.226223 C147.767693,114.788277 136.483027,92.2627413 119.986685,71.8247955 C103.490343,51.3868497 83.9137111,35.6788286 64.7604362,27.4890517 C55.7823386,23.6642361 47.5341676,21.7372298 40.3516895,21.7372298 C33.8987258,21.4972228 27.562504,23.504381 22.4246913,27.416059 M109.811508,179.897733 C89.3735623,173.824744 65.1253995,156.715263 45.3443877,132.218925 C34.849329,119.427354 26.2907705,105.16309 19.9429408,89.8831805 C18.6642394,99.9356636 19.2982514,110.139294 21.811553,119.956158 C26.1016242,126.886834 30.8213121,133.542179 35.9429326,139.883155 C63.8115316,174.394086 98.2640687,194.525687 124.993982,194.525687 C128.933181,194.537733 132.857836,194.047151 136.672808,193.06561 C127.189526,189.819143 118.146877,185.405702 109.753114,179.92693 M74.0305044,183.853935 C42.4718184,173.947461 19.1520345,147.155032 13.6932147,114.531571 C8.23439485,81.9081106 21.5618552,48.9835699 48.176503,29.3430654 C45.6140623,28.8299333 43.0087146,28.5610888 40.3954851,28.5401461 C35.900792,28.3648569 31.4611561,29.5779836 27.6801631,32.0145969 C26.3567723,33.0506181 25.147955,34.2251774 24.0743255,35.5182447 C-1.09264138,65.2169379 -6.71552375,106.830142 9.66690346,142.143095 C26.0493307,177.456048 61.4528804,200.036221 100.380856,199.999956 C103.548738,199.999956 106.672824,199.839329 109.753114,199.547358 C97.045017,196.445696 84.97583,191.14968 74.0888986,183.897731 M126.658215,16.0584006 C158.227571,25.9344492 181.572016,52.7081324 187.056006,85.3284704 C192.539996,117.948808 179.233562,150.884079 152.629005,170.540074 C155.191445,171.053206 157.796793,171.32205 160.410022,171.342993 C164.904716,171.518282 169.344351,170.305155 173.125344,167.868542 C174.4451,166.828363 175.6535,165.654208 176.731182,164.364894 C201.828335,134.656436 207.403018,93.0832115 191.019131,57.8124324 C174.635245,22.5416534 139.271206,-0.0148281748 100.380856,7.31356016e-06 C97.2129744,7.31356016e-06 94.0888884,0.160598494 91.008598,0.452569148 C103.710074,3.53835104 115.774698,8.81971175 126.658215,16.0584006 M72.1910893,10.1313963 C78.5844218,12.8983724 84.7453241,16.1740978 90.6144376,19.9270118 C111.18377,25.9270087 135.534123,43.0802846 155.417324,67.7080093 C165.917634,80.5786797 174.471151,94.921436 180.804173,110.277331 C181.237014,106.858789 181.456417,103.416598 181.461124,99.9707666 C181.4655,93.2462805 180.631826,86.5474588 178.979356,80.0291709 C174.667955,73.1102704 169.939002,66.4604842 164.818779,60.1167723 C132.599818,20.233581 91.5925393,-0.452539879 63.8553271,6.97811327 C66.5852528,7.88322229 69.3735725,8.93431665 72.1910893,10.1313963 M178.351619,172.510876 L178.351619,172.510876 C173.219426,176.422595 166.887726,178.429955 160.43922,178.189705 C153.256741,178.189705 144.993972,176.262698 136.015874,172.423284 C116.862599,164.248106 97.2275729,148.481691 80.731231,128.043745 C64.234889,107.605799 52.9940188,85.0802632 48.9648238,64.6423174 C46.9064307,53.9999871 46.9648248,44.7299188 49.052415,37.2992657 C43.9459704,41.4831452 39.3673434,46.2725655 35.4173854,51.5620321 C35.5414284,56.7299313 36.1079764,61.8777041 37.1108152,66.9488856 C41.490375,89.2992392 53.6071572,113.66419 71.3297759,135.634982 C89.0523946,157.605774 110.337055,174.583867 131.271351,183.532768 C153.475719,193.021814 172.891768,192.452471 185.942856,181.897732 C197.373507,172.671459 202.366205,157.080227 200.337009,137.416003 C196.712646,147.229592 191.682027,156.464687 185.40271,164.832047 C183.333072,167.617913 180.990564,170.19027 178.410013,172.510876"></path></g></svg> 